<svg width="213" height="151" viewBox="0 0 213 151" fill="none" xmlns="http://www.w3.org/2000/svg">
<path d="M35.4889 95.8331C29.0499 102.131 27.9689 111.86 29.3319 120.414C29.3789 120.602 29.6609 120.555 29.6609 120.367C29.6609 118.44 29.6139 116.513 29.6139 114.586C29.6609 114.492 29.6609 114.398 29.7079 114.351C31.3999 113.129 32.9509 111.766 33.8909 109.886C34.9719 107.771 35.3949 105.374 36.1939 103.165C36.2879 102.977 36.0529 103.024 35.9119 103.118C32.0109 105.985 30.7419 109.087 29.6139 113.27C29.6609 111.108 29.8489 108.946 30.2719 106.831C31.1179 102.883 32.8099 98.9821 35.6299 96.0681C35.7709 95.8801 35.5829 95.7391 35.4889 95.8331Z" fill="#A6A6A6"/>
<path d="M36.7111 96.5849C37.8391 96.6319 38.4971 98.3709 39.3901 98.8879C39.8601 99.1699 40.2831 99.1229 40.6121 98.6999C41.4581 97.5249 40.2831 96.0209 39.2021 95.2219C40.0011 95.5509 40.6591 96.1149 41.5051 96.2559C42.0221 96.3499 42.3981 96.1619 42.5391 95.6449C42.9151 93.9999 40.8941 93.2949 39.4841 93.2479C40.1421 92.7779 42.1161 91.5089 41.0821 90.8509C40.0481 90.2399 37.7451 92.0729 36.9931 92.6369C35.9121 93.5299 34.5961 94.8459 34.5491 96.2559C34.4081 97.9009 35.8651 96.9139 36.7111 96.5849Z" fill="#DBDBDB"/>
<path d="M36.3822 96.8198C37.7922 96.1618 40.5182 97.1018 40.7532 96.5848C41.2232 95.5038 39.0612 94.7519 37.8862 94.6109C38.9672 94.3289 41.0352 93.8588 40.9882 92.8248C40.8942 91.5558 37.8392 92.6368 36.2412 93.8588C34.2672 95.3628 34.2672 96.8198 34.5962 97.1018C35.0192 97.4778 36.1472 96.9608 36.3822 96.8198Z" fill="#EBEBEB"/>
<path d="M20.825 95.2221C27.499 101.285 28.956 110.967 27.922 119.521C27.875 119.709 27.593 119.662 27.593 119.474C27.499 117.547 27.499 115.62 27.405 113.693C27.358 113.599 27.311 113.505 27.311 113.458C25.572 112.283 23.974 110.967 22.987 109.134C21.812 107.066 21.342 104.716 20.402 102.507C20.308 102.319 20.543 102.366 20.684 102.46C24.679 105.186 26.089 108.241 27.358 112.33C27.217 110.168 26.982 108.053 26.418 105.891C25.431 101.99 23.598 98.1361 20.684 95.3631C20.59 95.2691 20.731 95.0811 20.825 95.2221Z" fill="#A6A6A6"/>
<path d="M19.65 95.974C18.569 96.068 17.911 97.854 17.065 98.418C16.642 98.7 16.172 98.7 15.843 98.277C14.95 97.102 16.078 95.598 17.112 94.752C16.36 95.128 15.702 95.692 14.856 95.88C14.339 95.974 13.916 95.833 13.775 95.316C13.352 93.718 15.326 92.919 16.736 92.825C16.031 92.402 14.057 91.18 15.044 90.522C16.078 89.864 18.428 91.603 19.18 92.167C20.308 93.013 21.671 94.282 21.765 95.692C22 97.243 20.543 96.303 19.65 95.974Z" fill="#DBDBDB"/>
<path d="M19.9791 96.256C18.5221 95.645 15.8431 96.679 15.6081 96.162C15.0911 95.081 17.2531 94.282 18.4281 94.094C17.3471 93.859 15.2321 93.436 15.2791 92.402C15.3261 91.133 18.4281 92.12 20.0731 93.248C22.0941 94.705 22.1411 96.162 21.8121 96.444C21.3891 96.867 20.2141 96.35 19.9791 96.256Z" fill="#EBEBEB"/>
<path d="M27.6403 111.155C28.1103 114.351 28.7213 117.641 29.7083 120.696C29.8023 120.978 30.2253 120.884 30.1783 120.602C29.7553 117.641 28.9563 114.774 28.4863 111.813C28.0633 108.852 27.7813 105.797 27.9693 102.789C28.2513 97.807 29.6143 92.543 32.8573 88.642C32.9513 88.548 32.7633 88.407 32.7163 88.501C26.2303 96.068 27.2643 105.327 27.2643 106.173C26.3243 103.024 25.3843 99.452 21.9063 96.256C21.7653 96.115 21.6243 96.162 21.6713 96.397C22.3293 102.319 23.9273 105.327 27.3113 108.429C27.4053 109.369 27.4993 110.262 27.6403 111.155Z" fill="#A6A6A6"/>
<path d="M32.9516 89.5821C34.1266 89.0651 35.7246 90.5691 36.8996 90.6631C37.5106 90.7101 37.9806 90.4751 38.0746 89.8641C38.3566 88.2191 36.3826 87.2791 34.8316 86.9501C35.8186 86.9031 36.7586 87.1381 37.7456 86.9031C38.3096 86.7621 38.6386 86.3391 38.4976 85.7281C38.0746 83.8481 35.5836 84.1301 34.1266 84.7881C34.5966 83.9421 35.9596 81.6391 34.5966 81.4981C33.1866 81.3571 31.7296 84.4121 31.2596 85.3991C30.5546 86.8561 29.8966 88.9241 30.5546 90.3811C31.2596 92.1201 32.2466 90.3811 32.9516 89.5821Z" fill="#DBDBDB"/>
<path d="M32.7635 90.0053C33.8915 88.6423 37.1815 88.2193 37.1815 87.5613C37.1345 86.1983 34.5025 86.5273 33.1865 86.9503C34.1735 86.1043 36.0535 84.6003 35.4895 83.5193C34.7845 82.2503 32.1055 84.9293 31.0715 86.9503C29.8025 89.5353 30.5545 91.0393 31.0245 91.1803C31.6825 91.3683 32.5755 90.2403 32.7635 90.0053Z" fill="#EBEBEB"/>
<path d="M23.41 112.941L20.543 134.796H37.933C37.557 132.869 34.314 112.894 34.314 112.894L23.41 112.941Z" fill="#DBDBDB"/>
<path d="M193.111 49.0522H205.566V43.7882H193.111V49.0522Z" fill="#EBEBEB"/>
<path d="M200.04 42.416H212.495V37.152H200.04V42.416Z" fill="#EBEBEB"/>
<path d="M186.182 42.416H198.637V37.152H186.182V42.416Z" fill="#EBEBEB"/>
<path d="M6.97615 116.848H19.4312V111.584H6.97615V116.848Z" fill="#EBEBEB"/>
<path d="M7.82013e-05 110.212H12.4551V104.948H7.82013e-05V110.212Z" fill="#EBEBEB"/>
<path d="M200.04 116.884H212.495V111.62H200.04V116.884Z" fill="#EBEBEB"/>
<path d="M54.0541 0H41.5991V5.264H54.0541V0Z" fill="#EBEBEB"/>
<path d="M47.1454 6.62708H34.6904V11.8911H47.1454V6.62708Z" fill="#EBEBEB"/>
<path d="M15.9844 134.749L38.5914 134.655L61.1514 134.608L106.271 134.514L151.391 134.608L173.951 134.655L196.558 134.749L173.951 134.89L151.391 134.937L106.271 134.984L61.1514 134.937L38.5914 134.89L15.9844 134.749Z" fill="#271019"/>
<path d="M120.512 73.9779C120.465 74.2129 120.606 74.4479 120.841 74.4949C121.358 74.5889 121.922 74.6359 122.627 74.7299C124.601 70.4059 126.622 67.0219 126.058 68.3379C125.212 70.2649 124.507 73.0849 124.366 74.9649C125.165 75.0589 126.951 75.2939 127.844 75.3879C129.912 67.6799 132.215 62.0399 131.933 63.8259C130.852 70.9699 131.04 73.3199 131.275 75.8579C139.688 76.8919 150.78 78.1139 158.77 78.7719C160.086 74.5419 161.308 69.9359 161.402 70.2649C162.295 72.8029 162.248 76.3279 162.06 79.0539C164.598 79.2419 166.666 79.3829 167.935 79.3829C167.935 79.3829 168.875 75.8109 169.063 74.6359C169.58 71.6279 169.533 68.4789 168.969 65.4709C168.405 62.3689 167.136 59.5959 166.008 56.7759C166.008 56.7289 166.008 56.7289 165.961 56.7289C165.961 56.7289 165.961 56.7289 165.961 56.6819C165.162 54.7079 164.645 52.8749 164.316 50.9009V50.8539C164.128 49.4909 164.034 48.0339 164.034 46.4829C164.128 41.1249 161.731 36.3309 157.172 34.5919C149.417 26.6489 138.701 30.3149 135.693 36.9889V37.0359C134.518 40.0439 133.343 43.9919 132.309 46.9999C132.309 46.9999 132.309 46.9999 132.309 47.0469C131.792 48.5039 131.369 49.7259 130.946 50.5249C128.173 55.9769 122.815 58.7499 120.512 73.9779Z" fill="#271019"/>
<path d="M159.099 36.2368C162.013 38.1638 163.658 40.7958 163.799 44.7438C163.893 47.0468 163.799 49.2558 164.457 51.4648C165.115 53.7208 166.29 55.6478 167.465 57.5278C169.392 60.5358 170.661 63.5438 170.614 67.3508C170.614 71.2518 170.05 75.8108 168.499 79.3358H168.452C169.768 75.7638 170.238 70.6878 170.003 66.7868C169.721 62.5098 167.7 59.6898 165.726 56.3528C164.128 53.6738 163.235 50.7598 163.141 47.5168C163.094 45.5898 163.282 43.5688 162.718 41.7358C162.06 39.5268 160.462 38.0228 158.864 36.6598C158.629 36.4248 158.864 36.0958 159.099 36.2368Z" fill="#271019"/>
<path d="M125.259 56.165C127.703 53.298 130.194 50.901 131.792 47.235C133.249 43.898 134.236 40.326 135.74 37.036C135.787 36.989 135.834 36.989 135.834 37.083C133.484 43.005 132.591 49.068 128.455 53.909C126.199 56.541 123.99 58.938 122.392 62.181C120.7 65.565 119.807 69.137 119.337 72.991C119.337 73.132 119.149 73.085 119.149 72.991C119.149 66.693 121.405 60.677 125.259 56.165Z" fill="#271019"/>
<path d="M101.571 129.109C101.571 129.109 124.225 135.266 127.985 134.561C131.745 133.903 144.388 116.842 147.208 110.685C150.028 104.481 154.681 73.7426 153.788 70.3586C152.895 66.9746 148.195 66.9276 144.247 75.6696C140.299 84.4116 130.946 103.588 129.254 105.139C127.609 106.69 99.7384 127.464 101.571 129.109Z" fill="#DD6A57"/>
<path d="M126.059 132.54C122.581 130.707 118.351 126.289 115.484 125.866C112.899 125.443 111.865 127.605 111.865 127.605C111.865 127.605 110.549 124.644 107.87 124.691C106.507 124.691 105.285 126.9 105.285 126.9C105.285 126.9 104.11 124.597 101.713 124.738C99.8326 124.879 98.8926 127.041 98.8926 127.041C98.8926 127.041 96.7306 125.349 94.8506 126.101C90.9966 127.605 90.3856 143.961 96.3076 146.734C99.0806 148.003 98.9866 144.008 98.9866 144.008C98.9866 144.008 100.444 149.742 103.828 149.977C107.212 150.212 106.789 144.995 106.789 144.995C106.789 144.995 108.246 150.541 111.771 150.4C115.437 150.259 114.168 145.136 114.168 145.136C114.168 145.136 116.471 148.849 119.15 148.144C123.568 146.969 118.821 138.133 119.808 134.561H125.354L126.059 132.54Z" fill="#DD6A57"/>
<path d="M121.03 129.062C124.461 130.519 128.409 125.067 131.934 126.336C136.54 127.981 132.263 133.668 125.307 134.561H119.761L121.03 129.062Z" fill="#DD6A57"/>
<path d="M98.6577 127.37C98.6577 127.323 98.6107 127.276 98.5637 127.37C97.0597 132.681 97.0127 139.026 98.8927 144.243C98.9397 144.431 99.2687 144.384 99.2217 144.196C98.3287 138.368 97.9527 133.198 98.6577 127.37Z" fill="#271019"/>
<path d="M105.191 126.759C105.191 126.712 105.097 126.665 105.097 126.759C103.546 132.258 103.687 139.355 106.601 145.136C106.695 145.324 106.977 145.418 106.883 145.183C105.238 141.188 104.533 132.023 105.191 126.759Z" fill="#271019"/>
<path d="M114.497 145.465C111.912 139.825 111.442 133.903 111.771 127.793C111.771 127.699 111.677 127.699 111.63 127.793C110.643 130.754 110.831 134.702 111.207 137.71C111.583 140.624 112.523 143.209 114.262 145.559C114.356 145.653 114.544 145.606 114.497 145.465Z" fill="#271019"/>
<path d="M132.216 125.913C129.96 125.161 127.657 126.947 125.73 127.981C125.119 128.31 124.508 128.686 123.803 128.874C122.299 129.344 121.171 129.062 120.513 128.639C119.479 127.981 116.189 124.691 113.792 125.772C113.04 126.101 112.194 126.806 111.771 127.511C111.066 126.195 110.126 124.785 108.528 124.503C107.776 124.362 107.118 124.55 106.507 125.02C106.225 125.255 105.943 125.537 105.708 125.819C105.52 126.101 105.285 126.383 105.144 126.712C105.144 126.712 105.144 126.712 105.144 126.665C105.144 126.618 105.097 126.618 105.097 126.571C105.05 126.524 105.05 126.43 105.003 126.383C104.909 126.242 104.862 126.101 104.768 126.007C104.674 125.913 104.58 125.772 104.486 125.678C104.392 125.584 104.251 125.537 104.157 125.537C104.11 125.537 104.11 125.584 104.157 125.631C104.251 125.678 104.345 125.772 104.392 125.866C104.486 125.96 104.533 126.101 104.627 126.195C104.721 126.289 104.768 126.43 104.862 126.524C104.909 126.571 104.956 126.618 105.003 126.712C105.003 126.759 105.05 126.759 105.05 126.806C105.05 126.853 105.097 126.853 105.144 126.9C105.191 126.947 105.238 126.9 105.238 126.9C105.473 126.712 105.661 126.43 105.896 126.195C106.131 125.913 106.366 125.678 106.695 125.443C107.259 125.02 107.917 124.832 108.622 124.973C110.079 125.255 110.972 126.524 111.724 127.652C111.724 127.699 111.771 127.699 111.771 127.699C112.57 126.994 113.322 126.242 114.403 126.054C115.578 125.866 116.706 126.43 117.646 127.041C118.116 127.323 118.586 127.652 119.056 127.981C119.432 128.31 119.855 128.639 120.278 128.921C122.111 130.049 124.085 129.203 124.602 128.968C125.589 128.545 126.529 128.028 127.469 127.464C128.409 126.9 129.396 126.336 130.524 126.242C131.511 126.148 132.592 126.43 133.25 127.276C133.579 127.699 134.049 128.545 133.109 130.425C133.109 130.425 133.109 130.472 133.156 130.472C133.626 129.908 135.13 126.853 132.216 125.913Z" fill="#271019"/>
<path d="M152.05 98.9347L130.618 95.5037C130.618 95.5037 140.864 75.2467 146.974 69.3717C153.037 63.5907 155.998 69.5127 155.105 78.4897C154.118 88.4067 152.05 98.9347 152.05 98.9347Z" fill="#37474F"/>
<path d="M151.345 94.9396C150.734 94.7986 150.123 94.7046 149.512 94.5636C148.948 94.4226 148.337 94.3286 147.726 94.2346C146.504 94.0466 145.329 93.8586 144.107 93.7176C141.71 93.3886 139.313 93.0126 136.916 92.7776C135.553 92.6366 134.19 92.4016 132.827 92.3076C132.78 92.3076 132.78 92.3546 132.827 92.4016C135.177 92.9656 137.621 93.3886 140.018 93.7646C142.415 94.1406 144.812 94.5166 147.209 94.7986C147.867 94.8926 148.572 94.9396 149.23 94.9866C149.935 95.0336 150.64 95.0806 151.298 95.0806C151.392 95.0336 151.392 94.9396 151.345 94.9396Z" fill="#271019"/>
<path d="M140.112 134.749H196.841C196.841 134.749 173.294 76.2338 161.309 67.7268C157.69 65.1418 152.003 64.8598 148.102 70.0298C144.953 74.2598 136.164 91.0388 135.741 97.1018C135.365 103.165 140.065 109.134 140.065 109.134L140.112 134.749Z" fill="#455A64"/>
<path d="M158.865 95.1281C159.006 95.0811 159.147 95.081 159.288 95.034C159.429 94.987 159.617 94.987 159.758 95.081C160.087 95.175 160.322 95.504 160.322 95.88C160.322 96.115 160.416 96.303 160.604 96.444C160.698 96.491 160.792 96.538 160.933 96.585C161.074 96.632 161.215 96.632 161.356 96.679C161.215 96.726 161.074 96.7261 160.933 96.7731C160.792 96.8201 160.604 96.773 160.463 96.726C160.134 96.585 159.946 96.256 159.946 95.927C159.946 95.692 159.805 95.5041 159.617 95.3631C159.523 95.3161 159.429 95.269 159.241 95.269C159.147 95.175 159.006 95.1751 158.865 95.1281Z" fill="white"/>
<path d="M137.198 95.1281C137.339 95.0811 137.48 95.081 137.621 95.034C137.762 94.987 137.95 94.987 138.091 95.081C138.42 95.175 138.655 95.504 138.655 95.88C138.655 96.115 138.749 96.303 138.937 96.444C139.031 96.491 139.125 96.538 139.266 96.585C139.407 96.632 139.548 96.632 139.689 96.679C139.548 96.726 139.407 96.7261 139.266 96.7731C139.125 96.8201 138.937 96.773 138.796 96.726C138.467 96.585 138.279 96.256 138.279 95.927C138.279 95.692 138.138 95.5041 137.95 95.3631C137.856 95.3161 137.762 95.269 137.574 95.269C137.48 95.175 137.339 95.1751 137.198 95.1281Z" fill="white"/>
<path d="M166.761 123.281C166.902 123.234 167.043 123.234 167.184 123.187C167.325 123.14 167.513 123.14 167.654 123.234C167.983 123.328 168.218 123.657 168.218 124.033C168.218 124.268 168.312 124.456 168.5 124.597C168.594 124.644 168.688 124.691 168.829 124.738C168.97 124.785 169.111 124.785 169.252 124.832C169.111 124.879 168.97 124.879 168.829 124.926C168.688 124.973 168.5 124.926 168.359 124.879C168.03 124.738 167.842 124.409 167.842 124.08C167.842 123.845 167.701 123.657 167.513 123.516C167.419 123.469 167.325 123.422 167.137 123.422C167.043 123.328 166.902 123.328 166.761 123.281Z" fill="white"/>
<path d="M176.584 96.6319C176.725 96.5849 176.866 96.585 177.007 96.538C177.148 96.491 177.336 96.4909 177.477 96.5849C177.806 96.6789 178.041 97.008 178.041 97.384C178.041 97.619 178.135 97.807 178.323 97.948C178.417 97.995 178.511 98.042 178.652 98.089C178.793 98.136 178.934 98.136 179.075 98.183C178.934 98.23 178.793 98.2299 178.652 98.2769C178.511 98.3239 178.323 98.2769 178.182 98.2299C177.853 98.0889 177.665 97.76 177.665 97.431C177.665 97.196 177.524 97.0079 177.336 96.8669C177.242 96.8199 177.148 96.773 176.96 96.773C176.866 96.679 176.725 96.6789 176.584 96.6319Z" fill="white"/>
<path d="M151.486 82.297C151.627 82.25 151.768 82.25 151.909 82.203C152.05 82.156 152.238 82.156 152.379 82.25C152.708 82.344 152.943 82.673 152.943 83.049C152.943 83.284 153.037 83.472 153.225 83.613C153.319 83.66 153.413 83.707 153.554 83.754C153.695 83.801 153.836 83.801 153.977 83.848C153.836 83.895 153.695 83.895 153.554 83.942C153.413 83.989 153.225 83.942 153.084 83.895C152.755 83.754 152.567 83.425 152.567 83.096C152.567 82.861 152.426 82.673 152.238 82.532C152.144 82.485 152.05 82.438 151.862 82.438C151.768 82.391 151.627 82.344 151.486 82.297Z" fill="white"/>
<path d="M166.948 81.9679C167.089 81.9209 167.23 81.9209 167.371 81.8739C167.512 81.8269 167.7 81.8269 167.841 81.9209C168.17 82.0149 168.405 82.3439 168.405 82.7199C168.405 82.9549 168.499 83.1429 168.687 83.2839C168.781 83.3309 168.875 83.3779 169.016 83.4249C169.157 83.4719 169.298 83.4719 169.439 83.5189C169.298 83.5659 169.157 83.5659 169.016 83.6129C168.875 83.6599 168.687 83.6129 168.546 83.5659C168.217 83.4249 168.029 83.0959 168.029 82.7669C168.029 82.5319 167.888 82.3439 167.7 82.2029C167.606 82.1559 167.512 82.1089 167.324 82.1089C167.23 82.0619 167.089 82.0149 166.948 81.9679Z" fill="white"/>
<path d="M156.938 67.163C157.079 67.116 157.22 67.116 157.361 67.069C157.502 67.022 157.69 67.022 157.831 67.116C158.16 67.21 158.395 67.539 158.395 67.915C158.395 68.15 158.489 68.338 158.677 68.479C158.771 68.526 158.865 68.573 159.006 68.62C159.147 68.667 159.288 68.667 159.429 68.714C159.288 68.761 159.147 68.761 159.006 68.808C158.865 68.855 158.677 68.808 158.536 68.761C158.207 68.62 158.019 68.291 158.019 67.962C158.019 67.727 157.878 67.539 157.69 67.398C157.596 67.351 157.502 67.304 157.314 67.304C157.22 67.257 157.079 67.21 156.938 67.163Z" fill="white"/>
<path d="M147.726 106.925C147.867 106.878 148.008 106.878 148.149 106.831C148.29 106.784 148.478 106.784 148.619 106.878C148.948 106.972 149.183 107.301 149.183 107.677C149.183 107.912 149.277 108.1 149.465 108.241C149.559 108.288 149.653 108.335 149.794 108.382C149.935 108.429 150.076 108.429 150.217 108.476C150.076 108.523 149.935 108.523 149.794 108.57C149.653 108.617 149.465 108.57 149.324 108.523C148.995 108.382 148.807 108.053 148.807 107.724C148.807 107.489 148.666 107.301 148.478 107.16C148.384 107.113 148.29 107.066 148.102 107.066C148.008 106.972 147.867 106.925 147.726 106.925Z" fill="white"/>
<path d="M164.552 132.728C164.693 132.681 164.834 132.681 164.975 132.634C165.116 132.587 165.304 132.587 165.445 132.681C165.774 132.775 166.009 133.104 166.009 133.48C166.009 133.715 166.103 133.903 166.291 134.044C166.385 134.091 166.479 134.138 166.62 134.185C166.761 134.232 166.902 134.232 167.043 134.279C166.902 134.326 166.761 134.326 166.62 134.373C166.479 134.42 166.291 134.373 166.15 134.326C165.821 134.185 165.633 133.856 165.633 133.527C165.633 133.292 165.492 133.104 165.304 132.963C165.21 132.916 165.116 132.869 164.928 132.869C164.834 132.775 164.693 132.775 164.552 132.728Z" fill="white"/>
<path d="M156.233 118.863C156.374 118.816 156.515 118.816 156.656 118.769C156.797 118.722 156.985 118.722 157.126 118.816C157.455 118.91 157.69 119.239 157.69 119.615C157.69 119.85 157.784 120.038 157.972 120.179C158.066 120.226 158.16 120.273 158.301 120.32C158.442 120.367 158.583 120.367 158.724 120.414C158.583 120.461 158.442 120.461 158.301 120.508C158.16 120.555 157.972 120.508 157.831 120.461C157.502 120.32 157.314 119.991 157.314 119.662C157.314 119.427 157.173 119.239 156.985 119.098C156.891 119.051 156.797 119.004 156.609 119.004C156.562 118.91 156.374 118.91 156.233 118.863Z" fill="white"/>
<path d="M140.911 121.354C141.052 121.307 141.193 121.307 141.334 121.26C141.475 121.213 141.663 121.213 141.804 121.307C142.133 121.401 142.368 121.73 142.368 122.106C142.368 122.341 142.462 122.529 142.65 122.67C142.744 122.717 142.838 122.764 142.979 122.811C143.12 122.858 143.261 122.858 143.402 122.905C143.261 122.952 143.12 122.952 142.979 122.999C142.838 123.046 142.65 122.999 142.509 122.952C142.18 122.811 141.992 122.482 141.992 122.153C141.992 121.918 141.851 121.73 141.663 121.589C141.569 121.542 141.475 121.495 141.287 121.495C141.193 121.448 141.052 121.401 140.911 121.354Z" fill="white"/>
<path d="M163.33 107.254C163.471 107.207 163.612 107.207 163.753 107.16C163.894 107.113 164.082 107.113 164.223 107.207C164.552 107.301 164.787 107.63 164.787 108.006C164.787 108.241 164.881 108.429 165.069 108.57C165.163 108.617 165.257 108.664 165.398 108.711C165.539 108.758 165.68 108.758 165.821 108.805C165.68 108.852 165.539 108.852 165.398 108.899C165.257 108.946 165.069 108.899 164.928 108.852C164.599 108.711 164.411 108.382 164.411 108.053C164.411 107.818 164.27 107.63 164.082 107.489C163.988 107.442 163.894 107.395 163.706 107.395C163.612 107.301 163.471 107.301 163.33 107.254Z" fill="white"/>
<path d="M182.929 126.242C183.07 126.195 183.211 126.195 183.352 126.148C183.493 126.101 183.681 126.101 183.822 126.195C184.151 126.289 184.386 126.618 184.386 126.994C184.386 127.229 184.48 127.417 184.668 127.558C184.762 127.605 184.856 127.652 184.997 127.699C185.138 127.746 185.279 127.746 185.42 127.793C185.279 127.84 185.138 127.84 184.997 127.887C184.856 127.934 184.668 127.887 184.527 127.84C184.198 127.699 184.01 127.37 184.01 127.041C184.01 126.806 183.869 126.618 183.681 126.477C183.587 126.43 183.493 126.383 183.305 126.383C183.211 126.289 183.07 126.289 182.929 126.242Z" fill="white"/>
<path d="M175.127 114.633C175.268 114.586 175.409 114.586 175.55 114.539C175.691 114.492 175.879 114.492 176.02 114.586C176.349 114.68 176.584 115.009 176.584 115.385C176.584 115.62 176.678 115.808 176.866 115.949C176.96 115.996 177.054 116.043 177.195 116.09C177.336 116.137 177.477 116.137 177.618 116.184C177.477 116.231 177.336 116.231 177.195 116.278C177.054 116.325 176.866 116.278 176.725 116.231C176.396 116.09 176.208 115.761 176.208 115.432C176.208 115.197 176.067 115.009 175.879 114.868C175.785 114.821 175.691 114.774 175.503 114.774C175.409 114.68 175.268 114.68 175.127 114.633Z" fill="white"/>
<path d="M191.671 131.553C191.812 131.506 191.953 131.506 192.094 131.459C192.235 131.412 192.423 131.412 192.564 131.506C192.893 131.6 193.128 131.929 193.128 132.305C193.128 132.54 193.222 132.728 193.41 132.869C193.504 132.916 193.598 132.963 193.739 133.01C193.88 133.057 194.021 133.057 194.162 133.104C194.021 133.151 193.88 133.151 193.739 133.198C193.598 133.245 193.41 133.198 193.269 133.151C192.94 133.01 192.752 132.681 192.752 132.352C192.752 132.117 192.611 131.929 192.423 131.788C192.329 131.741 192.235 131.694 192.047 131.694C191.953 131.6 191.812 131.6 191.671 131.553Z" fill="white"/>
<path d="M152.802 90.334C152.708 90.475 152.661 90.569 152.567 90.71C152.473 90.804 152.379 90.945 152.191 91.039C151.862 91.18 151.486 91.133 151.251 90.851C151.11 90.663 150.875 90.616 150.64 90.663C150.499 90.71 150.405 90.757 150.311 90.851C150.17 90.945 150.076 91.039 149.935 91.086C150.029 90.945 150.076 90.851 150.17 90.71C150.264 90.616 150.405 90.475 150.546 90.428C150.875 90.287 151.251 90.381 151.486 90.616C151.627 90.757 151.862 90.851 152.097 90.757C152.238 90.71 152.332 90.663 152.426 90.569C152.567 90.475 152.708 90.381 152.802 90.334Z" fill="white"/>
<path d="M147.115 80.793C147.021 80.934 146.974 81.028 146.88 81.169C146.786 81.263 146.692 81.404 146.504 81.498C146.175 81.639 145.799 81.592 145.564 81.31C145.423 81.122 145.188 81.075 144.953 81.122C144.812 81.169 144.718 81.216 144.624 81.31C144.483 81.404 144.389 81.498 144.248 81.545C144.342 81.404 144.389 81.31 144.483 81.169C144.577 81.075 144.718 80.934 144.859 80.887C145.188 80.746 145.564 80.84 145.799 81.075C145.94 81.216 146.175 81.31 146.41 81.216C146.551 81.169 146.645 81.122 146.739 81.028C146.88 80.981 147.021 80.887 147.115 80.793Z" fill="white"/>
<path d="M175.832 106.878C175.738 107.019 175.691 107.113 175.597 107.254C175.503 107.348 175.409 107.489 175.221 107.583C174.892 107.724 174.516 107.677 174.281 107.395C174.14 107.207 173.905 107.16 173.67 107.207C173.529 107.254 173.435 107.301 173.341 107.395C173.2 107.489 173.106 107.583 172.965 107.63C173.059 107.489 173.106 107.395 173.2 107.254C173.294 107.16 173.435 107.019 173.576 106.972C173.905 106.831 174.281 106.925 174.516 107.16C174.657 107.301 174.892 107.395 175.127 107.301C175.268 107.254 175.362 107.207 175.456 107.113C175.597 107.066 175.738 106.972 175.832 106.878Z" fill="white"/>
<path d="M161.497 76.0459C161.403 76.1869 161.356 76.2809 161.262 76.4219C161.168 76.5159 161.074 76.6569 160.886 76.7509C160.557 76.8919 160.181 76.8449 159.946 76.5629C159.805 76.3749 159.57 76.3279 159.335 76.3749C159.194 76.4219 159.1 76.4689 159.006 76.5629C158.865 76.6569 158.771 76.7509 158.63 76.7979C158.724 76.6569 158.771 76.5629 158.865 76.4219C158.959 76.3279 159.1 76.1869 159.241 76.1399C159.57 75.9989 159.946 76.0929 160.181 76.3279C160.322 76.4689 160.557 76.5629 160.792 76.4689C160.933 76.4219 161.027 76.3749 161.121 76.2809C161.215 76.1869 161.356 76.0929 161.497 76.0459Z" fill="white"/>
<path d="M151.533 68.9961C151.439 69.1371 151.392 69.2311 151.298 69.3721C151.204 69.4661 151.11 69.6071 150.922 69.7011C150.593 69.8421 150.217 69.7951 149.982 69.5131C149.841 69.3251 149.606 69.2781 149.371 69.3251C149.23 69.3721 149.136 69.4191 149.042 69.5131C148.901 69.6071 148.807 69.7011 148.666 69.7481C148.76 69.6071 148.807 69.5131 148.901 69.3721C148.995 69.2781 149.136 69.1371 149.277 69.0901C149.606 68.9491 149.982 69.0431 150.217 69.2781C150.358 69.4191 150.593 69.5131 150.828 69.4191C150.969 69.3721 151.063 69.3251 151.157 69.2311C151.298 69.1841 151.392 69.0901 151.533 68.9961Z" fill="white"/>
<path d="M160.933 84.9761C160.98 85.1171 160.98 85.2581 161.027 85.3991C161.074 85.5401 161.074 85.7281 160.98 85.8691C160.886 86.1981 160.557 86.4331 160.181 86.4331C159.946 86.4331 159.758 86.5271 159.617 86.7151C159.57 86.8091 159.523 86.9031 159.476 87.0441C159.429 87.1851 159.429 87.3261 159.382 87.4671C159.335 87.3261 159.335 87.1851 159.288 87.0441C159.241 86.9031 159.288 86.7151 159.335 86.5741C159.476 86.2451 159.805 86.0571 160.134 86.0571C160.369 86.0571 160.557 85.9161 160.698 85.7281C160.745 85.6341 160.792 85.5401 160.792 85.3521C160.886 85.2581 160.886 85.1171 160.933 84.9761Z" fill="white"/>
<path d="M157.549 110.027C157.596 110.168 157.596 110.309 157.643 110.45C157.69 110.591 157.69 110.779 157.596 110.92C157.502 111.249 157.173 111.484 156.797 111.484C156.562 111.484 156.374 111.578 156.233 111.766C156.186 111.86 156.139 111.954 156.092 112.095C156.045 112.236 156.045 112.377 155.998 112.518C155.951 112.377 155.951 112.236 155.904 112.095C155.857 111.954 155.904 111.766 155.951 111.625C156.092 111.296 156.421 111.108 156.75 111.108C156.985 111.108 157.173 110.967 157.314 110.779C157.361 110.685 157.408 110.591 157.408 110.403C157.455 110.309 157.502 110.168 157.549 110.027Z" fill="white"/>
<path d="M190.402 121.636C190.449 121.777 190.449 121.918 190.496 122.059C190.543 122.2 190.543 122.388 190.449 122.529C190.355 122.858 190.026 123.093 189.65 123.093C189.415 123.093 189.227 123.187 189.086 123.375C189.039 123.469 188.992 123.563 188.945 123.704C188.898 123.845 188.898 123.986 188.851 124.127C188.804 123.986 188.804 123.845 188.757 123.704C188.71 123.563 188.757 123.375 188.804 123.234C188.945 122.905 189.274 122.717 189.603 122.717C189.838 122.717 190.026 122.576 190.167 122.388C190.214 122.294 190.261 122.2 190.261 122.012C190.355 121.918 190.355 121.777 190.402 121.636Z" fill="white"/>
<path d="M175.174 88.4539C175.221 88.5949 175.221 88.7359 175.268 88.8769C175.315 89.0179 175.315 89.2059 175.221 89.3469C175.127 89.6759 174.798 89.9109 174.422 89.9109C174.187 89.9109 173.999 90.0049 173.858 90.1929C173.811 90.2869 173.764 90.3809 173.717 90.5219C173.67 90.6629 173.67 90.8039 173.623 90.9449C173.576 90.8039 173.576 90.6629 173.529 90.5219C173.482 90.3809 173.529 90.1929 173.576 90.0519C173.717 89.7229 174.046 89.5349 174.375 89.5349C174.61 89.5349 174.798 89.3939 174.939 89.2059C174.986 89.1119 175.033 89.0179 175.033 88.8299C175.127 88.7359 175.127 88.5949 175.174 88.4539Z" fill="white"/>
<path d="M175.174 128.639C175.221 128.78 175.221 128.921 175.268 129.062C175.315 129.203 175.315 129.391 175.221 129.532C175.127 129.861 174.798 130.096 174.422 130.096C174.187 130.096 173.999 130.19 173.858 130.378C173.811 130.472 173.764 130.566 173.717 130.707C173.67 130.848 173.67 130.989 173.623 131.13C173.576 130.989 173.576 130.848 173.529 130.707C173.482 130.566 173.529 130.378 173.576 130.237C173.717 129.908 174.046 129.72 174.375 129.72C174.61 129.72 174.798 129.579 174.939 129.391C174.986 129.297 175.033 129.203 175.033 129.015C175.127 128.921 175.127 128.78 175.174 128.639Z" fill="white"/>
<path d="M182.929 105.656C182.976 105.797 182.976 105.938 183.023 106.079C183.07 106.22 183.07 106.408 182.976 106.549C182.882 106.878 182.553 107.113 182.177 107.113C181.942 107.113 181.754 107.207 181.613 107.395C181.566 107.489 181.519 107.583 181.472 107.724C181.425 107.865 181.425 108.006 181.378 108.147C181.331 108.006 181.331 107.865 181.284 107.724C181.237 107.583 181.284 107.395 181.331 107.254C181.472 106.925 181.801 106.737 182.13 106.737C182.365 106.737 182.553 106.596 182.694 106.408C182.741 106.314 182.788 106.22 182.788 106.032C182.835 105.938 182.882 105.797 182.929 105.656Z" fill="white"/>
<path d="M143.731 110.92C143.778 111.061 143.778 111.202 143.825 111.343C143.872 111.484 143.872 111.672 143.778 111.813C143.684 112.142 143.355 112.377 142.979 112.377C142.744 112.377 142.556 112.471 142.415 112.659C142.368 112.753 142.321 112.847 142.274 112.988C142.227 113.129 142.227 113.27 142.18 113.411C142.133 113.27 142.133 113.129 142.086 112.988C142.039 112.847 142.086 112.659 142.133 112.518C142.274 112.189 142.603 112.001 142.932 112.001C143.167 112.001 143.355 111.86 143.496 111.672C143.543 111.578 143.59 111.484 143.59 111.296C143.684 111.202 143.684 111.061 143.731 110.92Z" fill="white"/>
<path d="M144.483 88.4539C144.53 88.5949 144.53 88.7359 144.577 88.8769C144.624 89.0179 144.624 89.2059 144.53 89.3469C144.436 89.6759 144.107 89.9109 143.731 89.9109C143.496 89.9109 143.308 90.0049 143.167 90.1929C143.12 90.2869 143.073 90.3809 143.026 90.5219C142.979 90.6629 142.979 90.8039 142.932 90.9449C142.885 90.8039 142.885 90.6629 142.838 90.5219C142.791 90.3809 142.838 90.1929 142.885 90.0519C143.026 89.7229 143.355 89.5349 143.684 89.5349C143.919 89.5349 144.107 89.3939 144.248 89.2059C144.295 89.1119 144.342 89.0179 144.342 88.8299C144.436 88.7359 144.436 88.5949 144.483 88.4539Z" fill="white"/>
<path d="M152.661 73.8369C152.708 73.9779 152.708 74.1189 152.755 74.2599C152.802 74.4009 152.802 74.5889 152.708 74.7299C152.614 75.0589 152.285 75.2939 151.909 75.2939C151.674 75.2939 151.486 75.3879 151.345 75.5759C151.298 75.6699 151.251 75.7639 151.204 75.9049C151.157 76.0459 151.157 76.1869 151.11 76.3279C151.063 76.1869 151.063 76.0459 151.016 75.9049C150.969 75.7639 151.016 75.5759 151.063 75.4349C151.204 75.1059 151.533 74.9179 151.862 74.9179C152.097 74.9179 152.285 74.7769 152.426 74.5889C152.473 74.4949 152.52 74.4009 152.52 74.2129C152.614 74.1189 152.661 73.9779 152.661 73.8369Z" fill="white"/>
<path d="M150.499 96.4438C150.546 96.5848 150.546 96.7258 150.593 96.8668C150.64 97.0078 150.64 97.1958 150.546 97.3368C150.452 97.6658 150.123 97.9009 149.747 97.9009C149.512 97.9009 149.324 97.9949 149.183 98.1829C149.136 98.2769 149.089 98.3708 149.042 98.5118C148.995 98.6528 148.995 98.7938 148.948 98.9348C148.901 98.7938 148.901 98.6528 148.854 98.5118C148.807 98.3708 148.854 98.1828 148.901 98.0418C149.042 97.7128 149.371 97.5248 149.7 97.5248C149.935 97.5248 150.123 97.3839 150.264 97.1959C150.311 97.1019 150.358 97.0078 150.358 96.8198C150.405 96.7258 150.452 96.5848 150.499 96.4438Z" fill="white"/>
<path d="M170.239 99.4519C170.286 99.5929 170.286 99.7339 170.333 99.8749C170.38 100.016 170.38 100.204 170.286 100.345C170.192 100.674 169.863 100.909 169.487 100.909C169.252 100.909 169.064 101.003 168.923 101.191C168.876 101.285 168.829 101.379 168.782 101.52C168.735 101.661 168.735 101.802 168.688 101.943C168.641 101.802 168.641 101.661 168.594 101.52C168.547 101.379 168.594 101.191 168.641 101.05C168.782 100.721 169.111 100.533 169.44 100.533C169.675 100.533 169.863 100.392 170.004 100.204C170.051 100.11 170.098 100.016 170.098 99.8279C170.192 99.7339 170.192 99.5929 170.239 99.4519Z" fill="white"/>
<path d="M152.003 124.832C152.05 124.973 152.05 125.114 152.097 125.255C152.144 125.396 152.144 125.584 152.05 125.725C151.956 126.054 151.627 126.289 151.251 126.289C151.016 126.289 150.828 126.383 150.687 126.571C150.64 126.665 150.593 126.759 150.546 126.9C150.499 127.041 150.499 127.182 150.452 127.323C150.405 127.182 150.405 127.041 150.358 126.9C150.311 126.759 150.358 126.571 150.405 126.43C150.546 126.101 150.875 125.913 151.204 125.913C151.439 125.913 151.627 125.772 151.768 125.584C151.815 125.49 151.862 125.396 151.862 125.208C151.909 125.114 151.956 124.973 152.003 124.832Z" fill="white"/>
<path d="M166.854 92.3079C166.948 92.1669 166.995 92.0729 167.089 91.9319C167.183 91.8379 167.278 91.6969 167.466 91.6029C167.795 91.4619 168.171 91.5089 168.406 91.7909C168.547 91.9789 168.781 92.0259 169.016 91.9789C169.157 91.9319 169.252 91.8849 169.346 91.7909C169.487 91.6969 169.58 91.6029 169.721 91.5559C169.627 91.6969 169.58 91.7909 169.486 91.9319C169.392 92.0259 169.252 92.1669 169.111 92.2139C168.782 92.3549 168.406 92.2609 168.171 92.0259C168.03 91.8849 167.794 91.7909 167.559 91.8849C167.418 91.9319 167.325 91.9789 167.231 92.0729C167.09 92.1199 166.995 92.2139 166.854 92.3079Z" fill="white"/>
<path d="M155.34 102.742C155.434 102.601 155.481 102.507 155.575 102.366C155.669 102.272 155.763 102.131 155.951 102.037C156.28 101.896 156.656 101.943 156.891 102.225C157.032 102.413 157.267 102.46 157.502 102.413C157.643 102.366 157.737 102.319 157.831 102.225C157.972 102.131 158.066 102.037 158.207 101.99C158.113 102.131 158.066 102.225 157.972 102.366C157.878 102.46 157.737 102.601 157.596 102.648C157.267 102.789 156.891 102.695 156.656 102.46C156.515 102.319 156.28 102.225 156.045 102.319C155.904 102.366 155.81 102.413 155.716 102.507C155.575 102.554 155.434 102.648 155.34 102.742Z" fill="white"/>
<path d="M147.538 118.111C147.632 117.97 147.679 117.876 147.773 117.735C147.867 117.641 147.961 117.5 148.149 117.406C148.478 117.265 148.854 117.312 149.089 117.594C149.23 117.782 149.465 117.829 149.7 117.782C149.841 117.735 149.935 117.688 150.029 117.594C150.17 117.5 150.264 117.406 150.405 117.359C150.311 117.5 150.264 117.594 150.17 117.735C150.076 117.829 149.935 117.97 149.794 118.017C149.465 118.158 149.089 118.064 148.854 117.829C148.713 117.688 148.478 117.594 148.243 117.688C148.102 117.735 148.008 117.782 147.914 117.876C147.773 117.97 147.632 118.017 147.538 118.111Z" fill="white"/>
<path d="M150.875 134.091C150.969 133.95 151.016 133.856 151.11 133.715C151.204 133.621 151.298 133.48 151.486 133.386C151.815 133.245 152.191 133.292 152.426 133.574C152.567 133.762 152.802 133.809 153.037 133.762C153.178 133.715 153.272 133.668 153.366 133.574C153.507 133.48 153.601 133.386 153.742 133.339C153.648 133.48 153.601 133.574 153.507 133.715C153.413 133.809 153.272 133.95 153.131 133.997C152.802 134.138 152.426 134.044 152.191 133.809C152.05 133.668 151.815 133.574 151.58 133.668C151.439 133.715 151.345 133.762 151.251 133.856C151.157 133.95 151.016 133.997 150.875 134.091Z" fill="white"/>
<path d="M166.009 116.513C166.103 116.372 166.15 116.278 166.244 116.137C166.338 116.043 166.432 115.902 166.62 115.808C166.949 115.667 167.325 115.714 167.56 115.996C167.701 116.184 167.936 116.231 168.171 116.184C168.312 116.137 168.406 116.09 168.5 115.996C168.641 115.902 168.735 115.808 168.876 115.761C168.782 115.902 168.735 115.996 168.641 116.137C168.547 116.231 168.406 116.372 168.265 116.419C167.936 116.56 167.56 116.466 167.325 116.231C167.184 116.09 166.949 115.996 166.714 116.09C166.573 116.137 166.479 116.184 166.385 116.278C166.244 116.372 166.15 116.466 166.009 116.513Z" fill="white"/>
<path d="M176.396 122.905C176.49 122.764 176.537 122.67 176.631 122.529C176.725 122.435 176.819 122.294 177.007 122.2C177.336 122.059 177.712 122.106 177.947 122.388C178.088 122.576 178.322 122.623 178.557 122.576C178.698 122.529 178.793 122.482 178.887 122.388C179.028 122.294 179.121 122.2 179.262 122.153C179.168 122.294 179.121 122.388 179.027 122.529C178.933 122.623 178.793 122.764 178.652 122.811C178.323 122.952 177.947 122.858 177.712 122.623C177.571 122.482 177.336 122.388 177.101 122.482C176.96 122.529 176.866 122.576 176.772 122.67C176.631 122.717 176.537 122.811 176.396 122.905Z" fill="white"/>
<path d="M158.912 127.746C159.006 127.605 159.053 127.511 159.147 127.37C159.241 127.276 159.335 127.135 159.523 127.041C159.852 126.9 160.228 126.947 160.463 127.229C160.604 127.417 160.839 127.464 161.074 127.417C161.215 127.37 161.309 127.323 161.403 127.229C161.544 127.135 161.638 127.041 161.779 126.994C161.685 127.135 161.638 127.229 161.544 127.37C161.45 127.464 161.309 127.605 161.168 127.652C160.839 127.793 160.463 127.699 160.228 127.464C160.087 127.323 159.852 127.229 159.617 127.323C159.476 127.37 159.382 127.417 159.288 127.511C159.147 127.558 159.053 127.652 158.912 127.746Z" fill="white"/>
<path d="M181.472 134.091C181.566 133.95 181.613 133.856 181.707 133.715C181.801 133.621 181.895 133.48 182.083 133.386C182.412 133.245 182.788 133.292 183.023 133.574C183.164 133.762 183.399 133.809 183.634 133.762C183.775 133.715 183.869 133.668 183.963 133.574C184.104 133.48 184.198 133.386 184.339 133.339C184.245 133.48 184.198 133.574 184.104 133.715C184.01 133.809 183.869 133.95 183.728 133.997C183.399 134.138 183.023 134.044 182.788 133.809C182.647 133.668 182.412 133.574 182.177 133.668C182.036 133.715 181.942 133.762 181.848 133.856C181.707 133.95 181.613 133.997 181.472 134.091Z" fill="white"/>
<path d="M184.01 116.889C184.104 116.748 184.151 116.654 184.245 116.513C184.339 116.419 184.433 116.278 184.621 116.184C184.95 116.043 185.326 116.09 185.561 116.372C185.702 116.56 185.937 116.607 186.172 116.56C186.313 116.513 186.407 116.466 186.501 116.372C186.642 116.278 186.736 116.184 186.877 116.137C186.783 116.278 186.736 116.372 186.642 116.513C186.548 116.607 186.407 116.748 186.266 116.795C185.937 116.936 185.561 116.842 185.326 116.607C185.185 116.466 184.95 116.372 184.715 116.466C184.574 116.513 184.48 116.56 184.386 116.654C184.245 116.748 184.151 116.842 184.01 116.889Z" fill="white"/>
<path d="M142.838 129.908C142.932 129.767 142.979 129.673 143.073 129.532C143.167 129.438 143.261 129.297 143.449 129.203C143.778 129.062 144.154 129.109 144.389 129.391C144.53 129.579 144.765 129.626 145 129.579C145.141 129.532 145.235 129.485 145.329 129.391C145.47 129.297 145.564 129.203 145.705 129.156C145.611 129.297 145.564 129.391 145.47 129.532C145.376 129.626 145.235 129.767 145.094 129.814C144.765 129.955 144.389 129.861 144.154 129.626C144.013 129.485 143.778 129.391 143.543 129.485C143.402 129.532 143.308 129.579 143.214 129.673C143.073 129.767 142.932 129.861 142.838 129.908Z" fill="white"/>
<path d="M141.522 103.118C141.616 102.977 141.663 102.883 141.757 102.742C141.851 102.648 141.945 102.507 142.133 102.413C142.462 102.272 142.838 102.319 143.073 102.601C143.214 102.789 143.449 102.836 143.684 102.789C143.825 102.742 143.919 102.695 144.013 102.601C144.154 102.507 144.248 102.413 144.389 102.366C144.295 102.507 144.248 102.601 144.154 102.742C144.06 102.836 143.919 102.977 143.778 103.024C143.449 103.165 143.073 103.071 142.838 102.836C142.697 102.695 142.462 102.601 142.227 102.695C142.086 102.742 141.992 102.789 141.898 102.883C141.757 102.93 141.663 103.024 141.522 103.118Z" fill="white"/>
<path d="M156.844 67.3046C156.656 68.1976 152.707 73.9786 148.713 73.9316C147.397 73.9316 147.209 66.8346 147.209 66.8346L147.067 66.3176L145.188 59.0326L153.601 53.2046L154.823 52.4526C154.823 52.4526 155.199 54.4736 155.669 57.0116C155.669 57.1056 155.716 57.2466 155.716 57.3876C155.763 57.5286 155.763 57.6696 155.81 57.8106C155.904 58.1866 155.95 58.5626 155.998 58.9386C156.045 59.2206 156.092 59.5026 156.139 59.8316C156.186 60.1606 156.233 60.4426 156.28 60.7716C156.75 63.7326 156.938 66.9286 156.844 67.3046Z" fill="#DD6A57"/>
<path d="M155.716 56.964C153.789 62.886 149.23 65.424 147.115 66.27L145.235 58.985L153.648 53.157L154.87 52.405C154.87 52.405 155.246 54.426 155.716 56.964Z" fill="#271019"/>
<path d="M134.894 48.222C134.565 61.429 142.414 63.121 145.234 63.168C147.819 63.215 156.608 63.121 158.3 50.055C159.992 36.989 153.976 32.665 148.101 32.195C142.226 31.725 135.223 35.015 134.894 48.222Z" fill="#DD6A57"/>
<path d="M136.869 44.2271C137.198 44.1801 137.433 44.0861 137.762 43.9921C138.091 43.8981 138.373 43.8511 138.608 43.5691C138.749 43.4281 138.702 43.1461 138.561 43.0051C138.232 42.6761 137.809 42.6761 137.386 42.7701C136.963 42.8641 136.634 43.0521 136.352 43.4281C136.117 43.8041 136.493 44.2741 136.869 44.2271Z" fill="#271019"/>
<path d="M145.705 46.1543C145.376 46.1543 145.094 46.0603 144.812 46.0133C144.483 45.9663 144.201 45.9193 143.919 45.6843C143.778 45.5433 143.778 45.2613 143.872 45.1203C144.154 44.7913 144.577 44.7443 145 44.7913C145.47 44.8383 145.799 45.0263 146.081 45.3553C146.41 45.6373 146.128 46.1543 145.705 46.1543Z" fill="#271019"/>
<path d="M138.843 48.5045C138.843 48.4575 138.796 48.5515 138.796 48.5985C138.89 49.4915 138.843 50.5255 138.044 50.9015C137.997 50.9015 138.044 50.9485 138.044 50.9485C138.984 50.7135 139.078 49.3505 138.843 48.5045Z" fill="#271019"/>
<path d="M137.95 47.6113C136.493 47.6113 136.587 50.4783 137.903 50.5253C139.266 50.5253 139.172 47.6113 137.95 47.6113Z" fill="#271019"/>
<path d="M137.386 47.8464C137.151 47.9874 136.963 48.2694 136.681 48.3164C136.352 48.3634 136.117 48.0344 135.929 47.7524C135.929 47.7054 135.882 47.7524 135.882 47.7994C135.882 48.3634 136.07 48.9274 136.634 49.0214C137.104 49.1154 137.48 48.5984 137.574 48.0814C137.527 47.8934 137.48 47.7524 137.386 47.8464Z" fill="#271019"/>
<path d="M144.718 56.165C144.483 56.353 144.248 56.635 143.919 56.682C143.59 56.682 143.261 56.541 142.979 56.4C142.932 56.4 142.932 56.4 142.932 56.447C143.167 56.823 143.637 57.011 144.06 56.964C144.483 56.917 144.671 56.541 144.812 56.212C144.812 56.165 144.765 56.165 144.718 56.165Z" fill="#271019"/>
<path d="M140.253 52.5933C140.253 52.5933 140.159 53.9563 140.159 54.5673C140.159 54.6143 141.945 54.3793 143.825 54.8963C144.107 54.9903 144.107 54.7553 143.778 54.5673C143.12 54.2383 142.321 53.9093 140.676 54.0033C140.629 53.8153 140.864 51.9353 140.77 51.9353C140.441 51.9353 139.783 52.2173 139.36 52.3583C139.501 49.5383 140.112 46.8123 140.206 43.9923C140.206 43.8983 140.065 43.8513 140.018 43.9453C139.172 46.8123 138.937 50.0083 138.749 52.9223C138.702 53.2513 139.971 52.6873 140.253 52.5933Z" fill="#271019"/>
<path d="M146.504 48.5513C146.269 48.4573 145.987 48.4103 145.705 48.3633C145.423 48.3633 145.141 48.3633 144.859 48.4103C144.577 48.5043 144.295 48.5983 144.013 48.7863C143.778 48.9743 143.543 49.2093 143.402 49.4913L143.12 50.0083L143.684 49.9613C144.06 49.9143 144.483 49.9143 144.906 49.9613C145.329 50.0083 145.705 50.1023 146.081 50.3843C145.893 49.9613 145.47 49.6793 145 49.5383C144.577 49.3973 144.107 49.3503 143.637 49.3973L143.919 49.8673C144.154 49.4443 144.53 49.1623 145 48.9743C145.47 48.7393 145.987 48.5983 146.504 48.5513Z" fill="#271019"/>
<path d="M144.859 50.9013C144.436 50.7603 144.013 50.6663 143.637 50.4313C143.543 50.3843 143.214 50.1023 143.214 50.0553C143.261 49.8673 143.355 49.6323 143.449 49.4443C143.308 49.6323 143.167 49.8203 143.12 50.0553C143.167 50.2903 143.308 50.4783 143.543 50.6193C143.966 50.8073 144.483 50.9013 144.859 50.9013Z" fill="#271019"/>
<path d="M141.757 54.4732C141.757 54.4732 142.556 55.6482 143.496 55.7892C144.577 55.9772 144.718 54.9902 143.496 54.4262C142.885 54.0972 141.757 54.4732 141.757 54.4732Z" fill="#271019"/>
<path d="M143.496 55.7421C143.073 55.6951 142.697 55.4601 142.415 55.1781C142.65 54.8491 143.167 54.4731 144.295 55.0841C144.483 55.5071 144.201 55.8831 143.496 55.7421Z" fill="#FF99BA"/>
<path d="M158.253 50.3371C156.091 50.6191 155.339 46.0601 155.339 46.0601C155.339 46.0601 150.921 46.2951 149.135 39.9971C149.135 39.9971 149.37 42.9581 151.344 45.1671C151.344 45.1671 143.495 44.6971 139.876 38.3521C139.876 38.3521 141.333 41.5951 142.649 42.7231C142.649 42.7231 139.312 41.9711 137.62 39.3861C137.62 39.3861 136.445 43.2401 135.411 44.3211C135.411 44.3211 135.082 30.6441 147.819 31.4901C147.819 31.4901 155.762 31.6311 158.911 37.7881C162.06 43.8981 158.253 50.3371 158.253 50.3371Z" fill="#271019"/>
<path d="M156.185 50.9952C156.185 50.9952 158.817 46.7182 160.744 47.6112C162.671 48.5042 160.885 54.6142 158.723 55.5542C156.561 56.4942 155.668 54.5202 155.668 54.5202L156.185 50.9952Z" fill="#DD6A57"/>
<path d="M160.18 49.3503C160.227 49.3503 160.227 49.3973 160.18 49.3973C158.676 50.1023 157.971 51.6063 157.501 53.1103C157.924 52.4993 158.535 52.1703 159.334 52.6403C159.381 52.6873 159.334 52.7343 159.287 52.7343C158.629 52.6403 158.206 52.7813 157.83 53.2983C157.548 53.6743 157.36 54.1443 157.172 54.5673C157.125 54.7083 156.843 54.6613 156.89 54.4733V54.4263C156.749 52.4993 158.112 49.6793 160.18 49.3503Z" fill="#271019"/>
<path d="M157.501 54.8963C157.501 55.2253 157.83 55.5073 158.159 55.4603C158.488 55.4603 158.77 55.1313 158.723 54.8023C158.723 54.4733 158.394 54.1913 158.065 54.2383C157.736 54.2383 157.454 54.5203 157.501 54.8963Z" fill="white"/>
<path d="M158.958 53.8622C158.958 54.0972 159.146 54.2382 159.381 54.2382C159.616 54.2382 159.757 54.0502 159.757 53.8152C159.757 53.5802 159.569 53.4392 159.334 53.4392C159.146 53.4392 158.958 53.6272 158.958 53.8622Z" fill="white"/>
<path d="M116.182 79.5424L109.36 81.1265L114.272 102.278L121.094 100.694L116.182 79.5424Z" fill="#EBEBEB"/>
<path d="M99.5503 23.4059C83.6173 27.1189 73.7003 43.0049 77.4133 58.9849C81.1263 74.9179 97.0123 84.8348 112.945 81.1218C128.878 77.4088 138.795 61.5229 135.082 45.5899C131.416 29.6569 115.483 19.7399 99.5503 23.4059ZM111.582 75.0588C98.9863 77.9729 86.4373 70.1709 83.5233 57.5749C80.6093 44.9789 88.4113 32.4299 101.007 29.5159C113.603 26.6019 126.152 34.4039 129.066 46.9999C131.98 59.5489 124.131 72.1449 111.582 75.0588Z" fill="#A6A6A6"/>
<path d="M125.729 125.631L121.17 126.712C119.572 127.088 118.021 126.101 117.645 124.503L111.77 99.3109C111.394 97.7129 112.381 96.1619 113.979 95.7859L118.538 94.7049C120.136 94.3289 121.687 95.3159 122.063 96.9139L127.938 122.106C128.314 123.657 127.327 125.255 125.729 125.631Z" fill="#271019"/>
<g opacity="0.3">
<path opacity="0.3" d="M129.066 47C131.98 59.596 124.178 72.145 111.582 75.0589C98.9862 77.9729 86.4372 70.171 83.5232 57.575C80.6092 44.979 88.4112 32.43 101.007 29.516C113.556 26.555 126.105 34.404 129.066 47Z" fill="white"/>
<g opacity="0.3">
<path opacity="0.3" d="M129.63 53.5801C129.066 63.6851 121.922 72.6621 111.582 75.0591C109.42 75.5761 107.305 75.7641 105.19 75.6231L129.63 53.5801Z" fill="#EBEBEB"/>
<path opacity="0.3" d="M118.868 32.5715L85.4038 62.7925C84.6048 61.1475 83.9468 59.4085 83.5238 57.5755C83.0068 55.4605 82.8658 53.3455 82.9598 51.2305L107.682 28.9055C111.677 29.1405 115.531 30.4565 118.868 32.5715Z" fill="#EBEBEB"/>
<path opacity="0.3" d="M128.408 44.744L96.4954 73.508C95.0854 72.85 93.7694 72.098 92.5474 71.205L126.528 40.561C127.28 41.877 127.891 43.24 128.408 44.744Z" fill="#EBEBEB"/>
<path opacity="0.3" d="M121.452 34.498L87.0012 65.565C86.8602 65.33 86.6723 65.095 86.5312 64.86L120.747 33.981C120.982 34.122 121.217 34.31 121.452 34.498Z" fill="#EBEBEB"/>
<path opacity="0.3" d="M99.8326 29.7979L84.5576 43.5689C84.8396 42.9109 85.1216 42.2999 85.4506 41.6419L97.8586 30.4089C98.5166 30.2209 99.1746 29.9859 99.8326 29.7979Z" fill="#EBEBEB"/>
</g>
</g>
<path d="M89.6806 56.3058C89.6806 56.2588 89.6806 56.2588 89.6806 56.2118C89.5866 55.7418 89.7276 56.6818 89.6806 56.3528C89.6336 55.9768 89.5866 55.6478 89.5396 55.2718C89.4456 54.0028 89.4456 52.7338 89.5396 51.4178C89.5396 51.2298 89.5866 51.0418 89.5866 50.9008C89.5866 50.8538 89.5396 51.3238 89.5866 50.9478C89.5866 50.8538 89.6336 50.7128 89.6336 50.6188C89.6806 50.1958 89.7746 49.7728 89.8216 49.3498C90.0096 48.4098 90.2446 47.5168 90.5266 46.6238C90.6206 46.3888 90.6676 46.2008 90.7616 45.9658C90.8556 45.6838 90.6206 46.2948 90.8086 45.9188C90.8556 45.7778 90.9026 45.6838 90.9496 45.5428C91.1376 45.0728 91.3726 44.6028 91.6076 44.1328C91.8426 43.6628 92.1246 43.1458 92.4536 42.6758C92.5946 42.4408 92.7356 42.2528 92.8766 42.0178C93.1116 41.6418 92.7826 42.1588 92.9706 41.9238C93.0646 41.7828 93.1586 41.6888 93.2526 41.5478C94.0986 40.4668 95.0856 39.4798 96.1196 38.5868C96.1196 38.5868 96.3546 38.3988 96.1666 38.5398C96.0256 38.6808 96.2606 38.4928 96.2606 38.4458C96.4016 38.3048 96.5896 38.2108 96.7306 38.0698C97.0596 37.8348 97.3416 37.5998 97.6706 37.4118C98.3756 36.9418 99.0806 36.5188 99.7856 36.1428C100.632 35.6728 100.82 34.4978 100.35 33.6988C99.8326 32.8528 98.7516 32.6648 97.9056 33.1348C93.2526 35.6258 89.4456 39.5268 87.5186 44.4618C86.2026 47.7518 85.6856 51.3708 85.9206 54.8958C85.9676 55.6948 86.0616 56.4938 86.2026 57.2458C86.3906 58.1388 87.5656 58.7028 88.4116 58.4208C89.4456 58.1858 89.8686 57.2928 89.6806 56.3058Z" fill="white"/>
<path d="M91.2312 61.3349C91.5132 62.2749 90.9962 63.2149 90.0562 63.4969C89.1162 63.7789 88.1762 63.2619 87.8942 62.3219C87.6122 61.3819 88.1292 60.4419 89.0692 60.1599C90.0092 59.8779 90.9962 60.3949 91.2312 61.3349Z" fill="white"/>
<path d="M166.009 76.14C170.239 91.415 172.26 106.784 169.91 114.727C168.406 119.756 164.834 123.187 162.531 124.315C157.173 126.947 139.36 123.187 127.798 120.884C124.931 120.32 131.652 97.337 134.519 98.559C138.749 100.345 151.721 102.789 152.05 102.883C152.802 103.165 154.4 86.5271 155.528 76.798C157.079 63.262 163.565 67.304 166.009 76.14Z" fill="#DD6A57"/>
<path d="M105.52 94.1882C104.251 96.2562 105.896 98.1362 105.896 98.1362C105.896 98.1362 104.157 98.9352 103.499 100.674C102.747 102.648 105.52 104.716 105.52 104.716C105.52 104.716 103.922 105.891 103.405 107.771C102.888 109.745 105.379 112.189 105.379 112.189C105.379 112.189 104.486 114.116 105.238 116.043C106.46 119.38 111.818 120.461 115.202 121.213C118.586 121.965 128.879 120.837 130.853 120.837L135.741 99.1702C135.741 99.1702 121.5 91.6032 117.411 91.2742C113.886 91.0392 106.93 91.8852 105.52 94.1882Z" fill="#DD6A57"/>
<path d="M106.131 97.8073C109.844 97.1963 113.604 97.7133 117.317 97.9953C117.411 97.9953 117.411 98.1363 117.317 98.1363C113.604 97.8073 109.844 98.1833 106.131 97.9953C106.037 97.9953 106.037 97.8073 106.131 97.8073Z" fill="#271019"/>
<path d="M105.661 104.387C106.507 104.293 107.4 104.434 108.246 104.528C109.139 104.669 110.079 104.763 110.972 104.951C112.758 105.233 114.591 105.609 116.377 105.985C116.471 105.985 116.471 106.126 116.377 106.126C114.591 105.844 112.758 105.562 110.972 105.327C110.079 105.233 109.139 105.092 108.246 104.998C107.4 104.904 106.507 104.904 105.708 104.622C105.52 104.622 105.52 104.434 105.661 104.387Z" fill="#271019"/>
<path d="M105.425 112.189C106.177 112.048 107.023 112.33 107.728 112.471C108.527 112.612 109.373 112.753 110.172 112.941C111.817 113.223 113.462 113.505 115.107 113.74C115.201 113.74 115.201 113.881 115.107 113.881C113.415 113.646 111.723 113.458 110.078 113.223C109.232 113.082 108.433 112.988 107.587 112.847C106.882 112.753 105.989 112.659 105.378 112.33C105.378 112.236 105.378 112.189 105.425 112.189Z" fill="#271019"/>
<path d="M110.173 91.9321C108.481 92.1671 106.507 92.5431 105.426 94.0001C104.956 94.6111 104.627 95.4101 104.721 96.2091C104.815 96.9611 105.191 97.6191 105.755 98.0891C104.439 98.5121 103.264 99.7811 103.17 101.191C103.123 101.943 103.358 102.601 103.828 103.165C104.063 103.447 104.345 103.682 104.58 103.964C104.815 104.199 105.144 104.434 105.379 104.669C105.097 104.904 104.815 105.139 104.58 105.421C104.298 105.703 104.063 105.985 103.828 106.314C103.405 106.972 103.076 107.724 103.076 108.523C103.076 109.322 103.405 110.027 103.875 110.685C104.298 111.296 104.768 111.907 105.426 112.236C105.473 112.236 105.52 112.189 105.473 112.189C104.956 111.719 104.533 111.202 104.204 110.591C103.828 109.933 103.546 109.228 103.546 108.476C103.593 107.771 103.875 107.066 104.251 106.455C104.439 106.126 104.674 105.844 104.909 105.515C105.097 105.28 105.614 104.763 105.567 104.716C105.567 104.716 105.003 104.105 104.815 103.87C104.627 103.588 104.439 103.353 104.251 103.071C103.875 102.507 103.687 101.896 103.781 101.238C103.875 100.627 104.157 100.063 104.58 99.6401C104.956 99.1701 105.473 98.7941 105.896 98.3241C105.943 98.2771 105.943 98.1831 105.896 98.1831C104.956 96.7261 105.097 95.3161 106.084 94.2351C106.601 93.6711 107.212 93.2951 107.87 92.9661C108.622 92.5901 109.421 92.3551 110.22 92.1201C110.22 92.0261 110.22 91.9321 110.173 91.9321Z" fill="#271019"/>
<path d="M141.333 123.516C140.346 123.187 139.265 123.046 138.231 122.811C137.197 122.576 136.163 122.388 135.129 122.153C134.095 121.965 133.014 121.73 131.98 121.542C130.946 121.354 129.959 121.119 128.925 120.978C127.938 120.837 126.951 120.931 125.964 121.025C124.977 121.119 123.99 121.213 122.956 121.26C120.935 121.354 118.914 121.307 116.893 121.119C114.637 120.931 112.381 120.508 110.172 119.897C110.125 119.897 110.125 119.944 110.172 119.991C113.979 121.26 118.021 121.918 122.016 121.871C123.003 121.871 124.037 121.824 125.024 121.73C126.011 121.636 126.998 121.448 128.032 121.495C129.113 121.495 130.147 121.777 131.181 121.965C132.215 122.153 133.249 122.341 134.283 122.529C135.458 122.717 136.633 122.952 137.808 123.14C138.983 123.328 140.158 123.563 141.333 123.657C141.427 123.704 141.427 123.516 141.333 123.516Z" fill="#271019"/>
<path d="M155.95 103.823C154.446 103.306 152.848 102.977 151.297 102.601C149.746 102.225 148.195 101.849 146.644 101.52C143.683 100.862 140.675 100.298 137.714 99.4521C136.962 99.2171 136.163 98.9821 135.411 98.7471C135.035 98.6061 134.659 98.4651 134.283 98.3241C133.907 98.1831 133.484 98.0421 133.108 97.8071C133.061 97.7601 133.014 97.8541 133.061 97.8541C133.343 98.0421 133.625 98.2771 133.954 98.4181C134.283 98.6061 134.612 98.7941 134.988 98.9351C135.599 99.2171 136.257 99.4991 136.962 99.6871C138.325 100.157 139.782 100.486 141.192 100.815C144.294 101.52 147.396 102.225 150.498 102.883C151.391 103.071 152.237 103.259 153.13 103.447C154.023 103.635 154.963 103.823 155.903 103.964C155.997 104.011 156.044 103.87 155.95 103.823Z" fill="#271019"/>
<path d="M151.062 98.136L172.542 101.05C172.542 101.05 168.594 78.678 164.457 71.299C160.321 64.014 155.81 68.808 154.071 77.644C152.097 87.467 151.062 98.136 151.062 98.136Z" fill="#37474F"/>
<path d="M170.943 97.8071C170.332 97.6661 169.721 97.5721 169.11 97.4311C168.546 97.2901 167.935 97.1961 167.324 97.1021C166.102 96.9141 164.927 96.726 163.705 96.585C161.308 96.256 158.911 95.88 156.514 95.645C155.151 95.504 153.788 95.269 152.425 95.175C152.378 95.175 152.378 95.2221 152.425 95.2691C154.775 95.8331 157.219 96.2561 159.616 96.6321C162.013 97.0081 164.41 97.3841 166.807 97.6661C167.465 97.7601 168.17 97.8071 168.828 97.8541C169.533 97.9011 170.238 97.9481 170.896 97.9481C170.99 97.9481 170.99 97.8541 170.943 97.8071Z" fill="#271019"/>
<path d="M182.693 16.732C181.847 24.628 174.797 30.315 166.948 29.516C163.752 29.187 160.932 27.824 158.723 25.803L151.532 26.837L155.104 20.633C154.211 18.518 153.882 16.168 154.117 13.724C154.963 5.82796 162.013 0.140964 169.862 0.939964C177.805 1.78596 183.539 8.83596 182.693 16.732Z" fill="white"/>
<path d="M182.694 16.732C182.412 19.364 181.425 21.902 179.78 24.017C179.404 24.581 178.934 25.004 178.464 25.521C177.947 25.944 177.477 26.414 176.96 26.79C175.926 27.589 174.751 28.247 173.482 28.717C172.26 29.234 170.944 29.469 169.628 29.657C168.969 29.704 168.312 29.751 167.654 29.704C166.996 29.704 166.338 29.61 165.68 29.516C163.048 29.046 160.556 27.824 158.582 25.991L158.771 26.038L151.58 27.119L151.062 27.213L151.345 26.743L154.917 20.539V20.774C153.178 16.685 153.554 11.797 155.81 7.99C156.938 6.063 158.489 4.41799 160.322 3.19599C162.155 1.97399 164.27 1.17499 166.432 0.892992C168.594 0.610992 170.85 0.798994 172.917 1.50399C174.986 2.20899 176.913 3.38399 178.464 4.88799C181.566 7.89599 183.164 12.408 182.694 16.732ZM182.694 16.732C183.117 12.408 181.518 7.896 178.323 4.935C176.771 3.431 174.845 2.30299 172.777 1.69199C170.709 1.03399 168.5 0.892995 166.385 1.22199C164.27 1.55099 162.201 2.34999 160.462 3.57199C158.723 4.79399 157.22 6.39199 156.186 8.27199C155.105 10.105 154.54 12.22 154.352 14.335C154.211 16.45 154.588 18.612 155.34 20.586L155.387 20.727L155.34 20.821L151.721 27.025L151.486 26.649L158.677 25.662H158.771L158.865 25.709C160.745 27.495 163.189 28.717 165.727 29.234C166.385 29.375 166.996 29.422 167.654 29.469C168.312 29.516 168.969 29.469 169.628 29.469C170.944 29.328 172.26 29.093 173.482 28.623C174.704 28.153 175.879 27.542 176.96 26.743C177.524 26.367 177.994 25.897 178.464 25.474C178.887 25.004 179.404 24.534 179.78 23.97C181.425 21.902 182.412 19.364 182.694 16.732Z" fill="#271019"/>
<path d="M161.402 21.9489C161.402 21.1029 162.013 20.4919 162.812 20.4919C163.658 20.4919 164.222 21.1029 164.222 21.9489C164.222 22.7949 163.658 23.4059 162.812 23.4059C161.966 23.4059 161.402 22.7479 161.402 21.9489ZM162.013 18.5179L161.684 7.09692H163.987L163.658 18.5179H162.013Z" fill="#994BBD"/>
<path d="M166.901 21.9489C166.901 21.1029 167.512 20.4919 168.311 20.4919C169.157 20.4919 169.721 21.1029 169.721 21.9489C169.721 22.7949 169.157 23.4059 168.311 23.4059C167.465 23.4059 166.901 22.7479 166.901 21.9489ZM167.465 18.5179L167.136 7.09692H169.439L169.11 18.5179H167.465Z" fill="#994BBD"/>
<path d="M172.354 21.9489C172.354 21.1029 172.965 20.4919 173.764 20.4919C174.61 20.4919 175.174 21.1029 175.174 21.9489C175.174 22.7949 174.61 23.4059 173.764 23.4059C172.918 23.4059 172.354 22.7479 172.354 21.9489ZM172.965 18.5179L172.636 7.09692H174.939L174.61 18.5179H172.965Z" fill="#994BBD"/>
</svg>
