<svg width="150" height="57" viewBox="0 0 150 57" fill="none" xmlns="http://www.w3.org/2000/svg">
<path fill-rule="evenodd" clip-rule="evenodd" d="M144.133 28.4443C144.785 28.5862 145.444 28.7862 146.108 29.0466C146.772 29.307 147.372 29.6501 147.909 30.0746C148.444 30.5004 148.876 31.02 149.201 31.6346C149.528 32.2504 149.691 32.9823 149.691 33.8326C149.691 34.9446 149.469 35.8838 149.027 36.6526C148.584 37.4203 148.007 38.0411 147.296 38.5137C146.586 38.9864 145.788 39.3295 144.902 39.5418C144.016 39.7553 143.13 39.8602 142.245 39.8602C140.823 39.8602 139.055 39.564 137.791 38.8766C136.409 38.125 135.915 37.693 135.436 37.1414C135.215 36.8859 135.156 36.5342 135.387 36.2873L137.069 33.9301C137.29 33.6931 137.665 33.4648 137.933 33.6499C138.529 34.0646 139.239 34.5793 139.795 34.8606C140.935 35.4382 142.371 35.6752 143.553 35.0902C144.007 34.8668 144.225 34.425 144.2 34.0696C144.164 33.5278 143.923 33.2069 143.364 32.9465C142.805 32.6873 141.931 32.4146 140.742 32.1307C140.136 31.99 139.529 31.8012 138.924 31.5642C138.318 31.3273 137.776 31.0089 137.299 30.6065C136.821 30.2054 136.43 29.7081 136.127 29.1169C135.824 28.527 135.672 27.8173 135.672 26.9905C135.672 25.9266 135.894 25.022 136.337 24.2778C136.78 23.5324 137.351 22.9252 138.051 22.4513C138.749 21.9786 139.524 21.6305 140.374 21.4059C141.225 21.1813 142.07 21.069 142.909 21.069C144.215 21.069 145.346 21.2455 146.576 21.7564C147.626 22.1921 148.142 22.4772 148.908 23.0955C149.176 23.3127 149.201 23.7126 148.963 23.9631L147.219 26.2944C146.997 26.5795 146.654 26.561 146.384 26.4079C145.942 26.1586 145.654 25.9908 145.256 25.7859C144.85 25.5761 144.415 25.4182 143.965 25.3342C143.093 25.1713 142.311 25.196 141.628 25.5157C141.173 25.7292 140.952 26.1512 140.952 26.6708C140.952 27.1669 141.202 27.5224 141.704 27.7347C142.204 27.9469 143.015 28.1839 144.133 28.4443ZM127.679 41.9533C127.195 43.1616 126.762 43.8601 126.288 44.5537C124.624 46.9887 121.508 47.5773 119.016 47.0454C117.848 46.7085 116.913 46.3173 116.433 45.7644C116.212 45.5101 116.154 45.1584 116.383 44.9116L117.853 42.305C118.074 42.0681 118.45 41.8385 118.716 42.0237C118.985 42.2113 119.605 42.4914 120.069 42.4914C120.765 42.4519 121.598 42.4186 122.436 40.5094C122.795 39.5751 122.782 38.9482 122.253 37.5733L115.925 22.4513C115.762 22.0637 116.049 21.6355 116.472 21.6355H121.521C121.775 21.6355 122.001 21.7959 122.083 22.0353L125.825 32.9823H125.931L129.265 22.0539C129.34 21.8058 129.57 21.6355 129.831 21.6355H134.246C134.661 21.6355 134.947 22.0489 134.799 22.4352L127.679 41.9533ZM112.084 38.5137C111.374 38.9864 110.575 39.3295 109.69 39.5418C108.804 39.7553 107.918 39.8602 107.032 39.8602C105.611 39.8602 103.843 39.564 102.579 38.8766C101.196 38.125 100.703 37.693 100.224 37.1414C100.003 36.8859 99.9435 36.5342 100.173 36.2873L101.857 33.9301C102.078 33.6931 102.453 33.4648 102.719 33.6499C103.317 34.0646 104.026 34.5793 104.582 34.8606C105.722 35.4382 107.158 35.6752 108.34 35.0902C108.795 34.8668 109.013 34.425 108.988 34.0696C108.952 33.5278 108.711 33.2069 108.152 32.9465C107.592 32.6873 106.718 32.4146 105.53 32.1307C104.924 31.99 104.317 31.8012 103.712 31.5642C103.106 31.3273 102.564 31.0089 102.087 30.6065C101.608 30.2054 101.218 29.7081 100.915 29.1169C100.612 28.527 100.46 27.8173 100.46 26.9905C100.46 25.9266 100.682 25.022 101.125 24.2778C101.567 23.5324 102.139 22.9252 102.839 22.4513C103.537 21.9786 104.311 21.6305 105.162 21.4059C106.013 21.1813 106.858 21.069 107.697 21.069C109.002 21.069 110.133 21.2455 111.364 21.7564C112.414 22.1921 112.93 22.4772 113.696 23.0955C113.963 23.3127 113.989 23.7126 113.75 23.9631L112.007 26.2944C111.784 26.5795 111.442 26.561 111.172 26.4079C110.73 26.1586 110.44 25.9908 110.044 25.7859C109.638 25.5761 109.203 25.4182 108.753 25.3342C107.881 25.1713 107.099 25.196 106.416 25.5157C105.961 25.7292 105.74 26.1512 105.74 26.6708C105.74 27.1669 105.99 27.5224 106.49 27.7347C106.992 27.9469 107.802 28.1839 108.921 28.4443C109.573 28.5862 110.232 28.7862 110.895 29.0466C111.56 29.307 112.16 29.6501 112.697 30.0746C113.232 30.5004 113.662 31.02 113.989 31.6346C114.316 32.2504 114.479 32.9823 114.479 33.8326C114.479 34.9446 114.257 35.8838 113.815 36.6526C113.371 37.4203 112.795 38.0411 112.084 38.5137ZM96.442 39.2937H92.3827C92.0546 39.2937 91.79 39.0296 91.79 38.705V37.4141H91.6856C91.242 38.1472 90.5723 38.7149 89.6752 39.116C88.7781 39.5183 87.8052 39.7195 86.7565 39.7195C86.057 39.7195 85.3338 39.6245 84.5883 39.4356C83.8428 39.2468 83.1606 38.9395 82.5431 38.5137C81.9255 38.088 81.4186 37.5202 81.0222 36.8118C80.6259 36.1022 80.4283 35.2284 80.4283 34.188C80.4283 32.9119 80.7725 31.8826 81.4596 31.1027C82.1467 30.3227 83.0326 29.7204 84.1174 29.2946C85.2008 28.8701 86.4061 28.5862 87.7344 28.4443C89.0626 28.3024 90.3561 28.2308 91.6148 28.2308V27.9469C91.6148 27.0732 91.3116 26.4289 90.7065 26.0143C90.1001 25.602 89.3546 25.3947 88.4687 25.3947C87.6524 25.3947 86.8658 25.5712 86.1091 25.9266C85.5388 26.1932 84.7473 26.6412 84.3025 26.9892C84.059 27.1793 83.7111 27.1521 83.5023 26.9238L81.8013 24.6394C81.5751 24.3926 81.6 24.0088 81.8547 23.7903C82.7742 23.0017 83.2787 22.5315 84.8505 21.8132C86.17 21.2097 87.6064 21.069 89.0278 21.069C90.4965 21.069 91.7378 21.2517 92.7517 21.6182C93.7656 21.9847 94.5869 22.5525 95.2156 23.3201C95.8456 24.089 96.3053 25.0578 96.5973 26.2278C96.8881 27.3977 97.0335 28.7862 97.0335 30.3943V38.705C97.0335 39.0296 96.7688 39.2937 96.442 39.2937ZM91.79 31.9789C91.79 31.7691 91.6185 31.5988 91.4085 31.5988H91.0557C90.4269 31.5988 89.7908 31.6296 89.1509 31.6876C88.5097 31.7469 87.9381 31.8604 87.4374 32.0246C86.9367 32.1912 86.5229 32.4318 86.1974 32.7515C85.8706 33.0711 85.7078 33.4907 85.7078 34.0103C85.7078 34.3423 85.7824 34.6249 85.9352 34.8619C86.0855 35.0976 86.2781 35.2877 86.5117 35.4284C86.7441 35.5703 87.0125 35.6715 87.3156 35.7307C87.6176 35.7887 87.9096 35.8183 88.1891 35.8183C89.3546 35.8183 90.2455 35.4938 90.8631 34.8434C91.4806 34.1942 91.79 33.313 91.79 32.2023V31.9789ZM74.9947 37.2685C74.1088 38.0843 73.0837 38.7174 71.9182 39.1666C70.7527 39.6146 69.5064 39.8392 68.1769 39.8392C66.8723 39.8392 65.631 39.6146 64.4543 39.1666C63.2776 38.7174 62.2526 38.0843 61.3778 37.2685C60.5043 36.4527 59.811 35.4604 59.2978 34.2905C58.7846 33.1205 58.5287 31.8148 58.5287 30.372C58.5287 28.9306 58.7846 27.631 59.2978 26.4721C59.811 25.3145 60.5043 24.3333 61.3778 23.5287C62.2526 22.7252 63.2776 22.1106 64.4543 21.6848C65.631 21.2603 66.8723 21.0468 68.1769 21.0468C69.5064 21.0468 70.7527 21.2603 71.9182 21.6848C73.0837 22.1106 74.1088 22.7252 74.9947 23.5287C75.8794 24.3333 76.5789 25.3145 77.0921 26.4721C77.604 27.631 77.8612 28.9306 77.8612 30.372C77.8612 31.8148 77.604 33.1205 77.0921 34.2905C76.5789 35.4604 75.8794 36.4527 74.9947 37.2685ZM68.1943 25.8563C65.6745 25.8563 63.6318 27.8877 63.6318 30.3943C63.6318 32.4627 65.0333 34.188 66.9356 34.7348C67.327 34.8606 67.7433 34.9458 68.213 34.9458C68.7833 34.9458 69.2815 34.8335 69.7363 34.6471C71.4945 34.0165 72.7581 32.359 72.7581 30.3943C72.7581 27.8877 70.7154 25.8563 68.1943 25.8563ZM51.8613 19.7596C50.5057 19.5029 49.3973 18.3995 49.1401 17.0506C48.6792 14.623 50.779 12.5348 53.2194 12.994C54.575 13.2494 55.6845 14.3515 55.943 15.7004C56.4089 18.1293 54.3053 20.2224 51.8613 19.7596ZM50.2124 21.6355H54.7613C55.0881 21.6355 55.354 21.8996 55.354 22.2254V38.705C55.354 39.0296 55.0881 39.2937 54.7613 39.2937H50.2124C49.8856 39.2937 49.6197 39.0296 49.6197 38.705V22.2254C49.6197 21.8996 49.8856 21.6355 50.2124 21.6355Z" fill="white"/>
<path fill-rule="evenodd" clip-rule="evenodd" d="M42.5438 25.0057C42.5438 30.7884 40.2024 36.0181 36.4179 39.7987C32.6323 43.5773 27.3959 45.9156 21.606 45.9166V45.9254H21.605V45.9166C15.8141 45.9156 10.5766 43.5773 6.79309 39.7977C3.00758 36.0181 0.667108 30.7884 0.666128 25.0067C0.666128 23.54 1.84665 22.3489 3.31618 22.3489C4.78473 22.3489 5.97603 23.538 5.97603 25.0047V25.0067C5.97603 29.3081 7.7189 33.2108 10.5541 36.0425C13.3883 38.8723 17.2963 40.6244 21.605 40.6244V40.6136H21.606V40.6244C25.9137 40.6244 29.8216 38.8723 32.6559 36.0425C35.4911 33.2108 37.2447 29.3081 37.2447 25.0057H37.2349V25.0047C37.2349 23.538 38.4252 22.3489 39.8948 22.3489C41.3633 22.3489 42.5546 23.538 42.5546 25.0047V25.0057H42.5438ZM30.7337 34.1215C28.403 36.448 25.1769 37.8874 21.606 37.8874V37.8972H21.605V37.8874C18.033 37.8874 14.8069 36.448 12.4772 34.1215C10.1475 31.7939 8.70544 28.5713 8.70544 25.0067H8.69467V25.0047H8.70544C8.70544 21.4382 10.1475 18.2155 12.4772 15.889C14.8069 13.5624 18.033 12.1231 21.603 12.1231V12.1123H21.605H21.606V12.1231C25.1759 12.1231 28.404 13.5624 30.7337 15.8899C33.0634 18.2165 34.5045 21.4382 34.5045 25.0038H34.5153V25.0047V25.0057H34.5045C34.5045 28.5713 33.0634 31.7939 30.7337 34.1215ZM29.2054 25.0038C29.2054 22.9185 28.3521 21.0229 26.9727 19.6451C25.5923 18.2673 23.6947 17.4143 21.606 17.4143V17.425H21.605H21.603V17.4143C19.5153 17.4143 17.6177 18.2673 16.2383 19.6451C14.8579 21.0229 14.0046 22.9185 14.0046 25.0047H14.0144V25.0067H14.0046C14.0046 27.0919 14.8579 28.9876 16.2383 30.3653C17.6177 31.7431 19.5153 32.5962 21.605 32.5962V32.5854H21.606V32.5962C23.6947 32.5962 25.5923 31.7431 26.9717 30.3653C28.3521 28.9876 29.2054 27.0919 29.2054 25.0057H29.1956V25.0047V25.0038H29.2054ZM3.3201 21.1499C1.4969 21.1499 0.0185547 19.6725 0.0185547 17.852C0.0185547 16.0316 1.4969 14.5552 3.3201 14.5552C5.1433 14.5552 6.62263 16.0316 6.62263 17.852C6.62263 19.6725 5.1433 21.1499 3.3201 21.1499Z" fill="white"/>
</svg>
